<svg width="32" height="32" viewBox="0 0 32 32" fill="none" xmlns="http://www.w3.org/2000/svg">
<path d="M2.95178 16.1239L3.94948 16.1917L2.95178 16.1239ZM2.67519 20.1934L1.67749 20.1256L2.67519 20.1934ZM29.3248 20.1934L30.3225 20.1256V20.1256L29.3248 20.1934ZM29.0489 16.134L28.0512 16.2018L29.0489 16.134ZM25.6834 12.73L25.5987 13.7264L25.6834 12.73ZM6.30577 12.7241L6.39174 13.7204L6.30577 12.7241ZM6.91054 5.35272L7.87064 5.63239L6.91054 5.35272ZM25.0894 5.35272L26.0495 5.07306V5.07306L25.0894 5.35272ZM13.7344 17.5924C13.1822 17.5924 12.7344 18.0401 12.7344 18.5924C12.7344 19.1447 13.1822 19.5924 13.7344 19.5924V17.5924ZM18.2655 19.5924C18.8178 19.5924 19.2655 19.1447 19.2655 18.5924C19.2655 18.0401 18.8178 17.5924 18.2655 17.5924V19.5924ZM17 2.6665C17 2.11422 16.5523 1.6665 16 1.6665C15.4477 1.6665 15 2.11422 15 2.6665H17ZM13.7344 5.37021C13.1822 5.37021 12.7344 5.81792 12.7344 6.37021C12.7344 6.92249 13.1822 7.37021 13.7344 7.37021V5.37021ZM18.2655 7.37021C18.8178 7.37021 19.2655 6.92249 19.2655 6.37021C19.2655 5.81792 18.8178 5.37021 18.2655 5.37021V7.37021ZM4.80504 23.4072V26.7406H6.80504V23.4072H4.80504ZM12.0913 26.7406V23.4072H10.0913V26.7406H12.0913ZM8.44817 30.3332C10.4419 30.3332 12.0913 28.7428 12.0913 26.7406H10.0913C10.0913 27.602 9.37394 28.3332 8.44817 28.3332V30.3332ZM4.80504 26.7406C4.80504 28.7428 6.45441 30.3332 8.44817 30.3332V28.3332C7.5224 28.3332 6.80504 27.602 6.80504 26.7406H4.80504ZM19.9087 23.4072V26.7406H21.9087V23.4072H19.9087ZM27.1949 26.7406V23.4072H25.1949V26.7406H27.1949ZM23.5518 30.3332C25.5456 30.3332 27.1949 28.7428 27.1949 26.7406H25.1949C25.1949 27.602 24.4776 28.3332 23.5518 28.3332V30.3332ZM19.9087 26.7406C19.9087 28.7428 21.5581 30.3332 23.5518 30.3332V28.3332C22.626 28.3332 21.9087 27.602 21.9087 26.7406H19.9087ZM1.95408 16.0561L1.67749 20.1256L3.67289 20.2612L3.94948 16.1917L1.95408 16.0561ZM6.44274 25.1435H25.5572V23.1435H6.44274V25.1435ZM30.3225 20.1256L30.0466 16.0662L28.0512 16.2018L28.3271 20.2612L30.3225 20.1256ZM25.7681 11.7336C19.0315 11.161 13.0137 11.1416 6.21981 11.7278L6.39174 13.7204C13.0677 13.1444 18.9713 13.1631 25.5987 13.7264L25.7681 11.7336ZM30.0466 16.0662C29.8911 13.779 28.0848 11.9305 25.7681 11.7336L25.5987 13.7264C26.9338 13.8399 27.9628 14.9016 28.0512 16.2018L30.0466 16.0662ZM25.5572 25.1435C28.3003 25.1435 30.5084 22.8609 30.3225 20.1256L28.3271 20.2612C28.4318 21.8014 27.1827 23.1435 25.5572 23.1435V25.1435ZM1.67749 20.1256C1.49158 22.8609 3.69971 25.1435 6.44274 25.1435V23.1435C4.8173 23.1435 3.56821 21.8014 3.67289 20.2612L1.67749 20.1256ZM3.94948 16.1917C4.03766 14.8944 5.06193 13.8351 6.39174 13.7204L6.21981 11.7278C3.90732 11.9273 2.10912 13.775 1.95408 16.0561L3.94948 16.1917ZM5.63236 13.3165L7.87064 5.63239L5.95044 5.07306L3.71216 12.7572L5.63236 13.3165ZM10.5412 3.6665H21.4588V1.6665H10.5412V3.6665ZM24.1293 5.63238L26.3676 13.3165L28.2878 12.7572L26.0495 5.07306L24.1293 5.63238ZM21.4588 3.6665C22.7113 3.6665 23.7936 4.47987 24.1293 5.63238L26.0495 5.07306C25.459 3.04557 23.5781 1.6665 21.4588 1.6665V3.6665ZM7.87064 5.63239C8.20635 4.47987 9.28868 3.6665 10.5412 3.6665V1.6665C8.42191 1.6665 6.54102 3.04557 5.95044 5.07306L7.87064 5.63239ZM13.7344 19.5924H18.2655V17.5924H13.7344V19.5924ZM15 2.6665V6.37021H17V2.6665H15ZM13.7344 7.37021H16V5.37021H13.7344V7.37021ZM16 7.37021H18.2655V5.37021H16V7.37021Z" fill="#373D46"/>
<path d="M8 18.6665H8.016M23.984 18.6665H24" stroke="#373D46" stroke-width="2" stroke-linecap="round" stroke-linejoin="round"/>
</svg>
