<svg width="32" height="32" viewBox="0 0 32 32" fill="none" xmlns="http://www.w3.org/2000/svg">
<path d="M4.85072 28.8972L4.39673 29.7882H4.39673L4.85072 28.8972ZM3.10266 27.1491L2.21165 27.6031H2.21165L3.10266 27.1491ZM28.8974 27.1491L29.7884 27.6031V27.6031L28.8974 27.1491ZM27.1493 28.8972L27.6033 29.7882H27.6033L27.1493 28.8972ZM27.1493 7.10248L27.6033 6.21147V6.21147L27.1493 7.10248ZM28.8974 8.85054L29.7884 8.39655V8.39655L28.8974 8.85054ZM4.85072 7.10248L4.39673 6.21147H4.39673L4.85072 7.10248ZM3.10266 8.85054L2.21165 8.39655H2.21165L3.10266 8.85054ZM20.4826 3.10248L20.0287 3.99348V3.99348L20.4826 3.10248ZM22.2307 4.85054L23.1217 4.39655L23.1217 4.39655L22.2307 4.85054ZM11.5174 3.10248L11.0634 2.21147V2.21147L11.5174 3.10248ZM9.76933 4.85054L10.6603 5.30453L10.6603 5.30453L9.76933 4.85054ZM14.6912 23.275L15.1452 22.384H15.1452L14.6912 23.275ZM14.4581 23.042L15.3492 22.588L14.4581 23.042ZM17.5419 23.042L18.4329 23.496H18.4329L17.5419 23.042ZM17.3088 23.275L16.8548 22.384H16.8548L17.3088 23.275ZM17.3088 12.7246L17.7628 11.8336L17.7628 11.8336L17.3088 12.7246ZM17.5419 12.9577L18.4329 12.5037V12.5037L17.5419 12.9577ZM14.6912 12.7246L14.2372 11.8336L14.6912 12.7246ZM14.4581 12.9577L15.3492 13.4117V13.4117L14.4581 12.9577ZM10.9579 19.5417L10.5039 20.4327H10.5039L10.9579 19.5417ZM10.7248 19.3086L9.83381 19.7626H9.83381L10.7248 19.3086ZM21.2752 19.3086L20.3842 18.8546L21.2752 19.3086ZM21.0421 19.5417L21.4961 20.4327L21.0421 19.5417ZM21.0421 16.458L20.5882 17.349L21.0421 16.458ZM21.2752 16.691L20.3842 17.145V17.145L21.2752 16.691ZM10.9579 16.458L11.4119 17.349V17.349L10.9579 16.458ZM10.7248 16.691L9.83381 16.2371L10.7248 16.691ZM17.8912 19.658L18.3452 20.549H18.3452L17.8912 19.658ZM17.6581 19.891L18.5492 20.345L18.5492 20.345L17.6581 19.891ZM14.3419 19.891L15.2329 19.4371V19.437L14.3419 19.891ZM14.1088 19.658L13.6548 20.549L13.6548 20.549L14.1088 19.658ZM17.8912 16.3417L17.4372 17.2327H17.4372L17.8912 16.3417ZM17.6581 16.1086L18.5492 15.6546L18.5492 15.6546L17.6581 16.1086ZM14.1088 16.3417L13.6548 15.4507L13.6548 15.4507L14.1088 16.3417ZM14.3419 16.1086L13.4509 15.6546V15.6546L14.3419 16.1086ZM28.3334 13.0665V22.9332H30.3334V13.0665H28.3334ZM22.9334 28.3332H9.06669V30.3332H22.9334V28.3332ZM3.66669 22.9332V13.0665H1.66669V22.9332H3.66669ZM9.06669 28.3332C7.93008 28.3332 7.13777 28.3324 6.52093 28.282C5.91576 28.2325 5.56807 28.1404 5.30472 28.0062L4.39673 29.7882C4.98903 30.09 5.62921 30.2158 6.35806 30.2754C7.07524 30.3339 7.96308 30.3332 9.06669 30.3332V28.3332ZM1.66669 22.9332C1.66669 24.0368 1.66591 24.9246 1.7245 25.6418C1.78405 26.3706 1.90987 27.0108 2.21165 27.6031L3.99367 26.6951C3.85948 26.4318 3.76731 26.0841 3.71786 25.4789C3.66746 24.8621 3.66669 24.0698 3.66669 22.9332H1.66669ZM5.30472 28.0062C4.74023 27.7186 4.28129 27.2596 3.99367 26.6951L2.21165 27.6031C2.69102 28.5439 3.45592 29.3088 4.39673 29.7882L5.30472 28.0062ZM28.3334 22.9332C28.3334 24.0698 28.3326 24.8621 28.2822 25.4789C28.2327 26.0841 28.1406 26.4318 28.0064 26.6951L29.7884 27.6031C30.0902 27.0108 30.216 26.3706 30.2755 25.6418C30.3341 24.9246 30.3334 24.0368 30.3334 22.9332H28.3334ZM22.9334 30.3332C24.037 30.3332 24.9248 30.3339 25.642 30.2754C26.3708 30.2158 27.011 30.09 27.6033 29.7882L26.6953 28.0062C26.432 28.1404 26.0843 28.2325 25.4791 28.282C24.8623 28.3324 24.07 28.3332 22.9334 28.3332V30.3332ZM28.0064 26.6951C27.7188 27.2596 27.2598 27.7186 26.6953 28.0062L27.6033 29.7882C28.5441 29.3088 29.309 28.5439 29.7884 27.6031L28.0064 26.6951ZM22.9334 7.6665C24.07 7.6665 24.8623 7.66728 25.4791 7.71768C26.0843 7.76712 26.432 7.8593 26.6953 7.99348L27.6033 6.21147C27.011 5.90968 26.3708 5.78387 25.642 5.72432C24.9248 5.66573 24.037 5.6665 22.9334 5.6665V7.6665ZM30.3334 13.0665C30.3334 11.9629 30.3341 11.0751 30.2755 10.3579C30.216 9.62903 30.0902 8.98884 29.7884 8.39655L28.0064 9.30453C28.1406 9.56789 28.2327 9.91558 28.2822 10.5207C28.3326 11.1376 28.3334 11.9299 28.3334 13.0665H30.3334ZM26.6953 7.99348C27.2598 8.2811 27.7188 8.74005 28.0064 9.30453L29.7884 8.39655C29.309 7.45574 28.5441 6.69084 27.6033 6.21147L26.6953 7.99348ZM9.06669 5.6665C7.96308 5.6665 7.07524 5.66573 6.35806 5.72432C5.62921 5.78387 4.98903 5.90968 4.39673 6.21147L5.30472 7.99348C5.56807 7.8593 5.91576 7.76712 6.52093 7.71768C7.13777 7.66728 7.93008 7.6665 9.06669 7.6665V5.6665ZM3.66669 13.0665C3.66669 11.9299 3.66746 11.1376 3.71786 10.5207C3.76731 9.91558 3.85948 9.56789 3.99367 9.30453L2.21165 8.39655C1.90987 8.98884 1.78405 9.62903 1.7245 10.3579C1.66591 11.0751 1.66669 11.9629 1.66669 13.0665H3.66669ZM4.39673 6.21147C3.45592 6.69084 2.69102 7.45574 2.21165 8.39655L3.99367 9.30453C4.28129 8.74005 4.74023 8.2811 5.30472 7.99348L4.39673 6.21147ZM15.7334 3.6665H16.2667V1.6665H15.7334V3.6665ZM16.2667 3.6665C17.4033 3.6665 18.1956 3.66728 18.8124 3.71768C19.4176 3.76712 19.7653 3.8593 20.0287 3.99348L20.9366 2.21147C20.3443 1.90968 19.7042 1.78387 18.9753 1.72432C18.2581 1.66573 17.3703 1.6665 16.2667 1.6665V3.6665ZM20.0287 3.99348C20.5931 4.2811 21.0521 4.74005 21.3397 5.30453L23.1217 4.39655C22.6424 3.45574 21.8775 2.69084 20.9366 2.21147L20.0287 3.99348ZM15.7334 1.6665C14.6297 1.6665 13.7419 1.66573 13.0247 1.72432C12.2959 1.78387 11.6557 1.90968 11.0634 2.21147L11.9714 3.99348C12.2347 3.8593 12.5824 3.76712 13.1876 3.71768C13.8044 3.66728 14.5967 3.6665 15.7334 3.6665V1.6665ZM11.0634 2.21147C10.1226 2.69084 9.35769 3.45574 8.87832 4.39655L10.6603 5.30453C10.948 4.74005 11.4069 4.2811 11.9714 3.99348L11.0634 2.21147ZM10.3699 6.72745C10.4147 5.9932 10.5107 5.59825 10.6603 5.30453L8.87832 4.39655C8.54391 5.05286 8.42455 5.77096 8.37359 6.60556L10.3699 6.72745ZM9.06669 7.6665H9.37173V5.6665H9.06669V7.6665ZM9.37173 7.6665H22.6283V5.6665H9.37173V7.6665ZM22.6283 7.6665H22.9334V5.6665H22.6283V7.6665ZM23.6264 6.60556C23.5755 5.77096 23.4561 5.05286 23.1217 4.39655L21.3397 5.30453C21.4894 5.59825 21.5853 5.9932 21.6302 6.72745L23.6264 6.60556ZM15.2534 13.6665H16.7467V11.6665H15.2534V13.6665ZM16.7467 22.3332H15.2534V24.3332H16.7467V22.3332ZM15.2534 22.3332C15.1764 22.3332 15.1196 22.3331 15.0713 22.3324C15.0229 22.3316 14.9974 22.3303 14.9845 22.3292C14.9574 22.327 15.0378 22.3293 15.1452 22.384L14.2372 24.166C14.4587 24.2789 14.6709 24.3103 14.8216 24.3226C14.9607 24.3339 15.1205 24.3332 15.2534 24.3332V22.3332ZM13.4 22.4798C13.4 22.6127 13.3992 22.7725 13.4106 22.9116C13.4229 23.0623 13.4543 23.2744 13.5671 23.496L15.3492 22.588C15.4039 22.6954 15.4062 22.7758 15.404 22.7487C15.4029 22.7358 15.4016 22.7103 15.4008 22.6619C15.4 22.6136 15.4 22.5568 15.4 22.4798H13.4ZM15.1452 22.384C15.233 22.4288 15.3044 22.5002 15.3492 22.588L13.5671 23.496C13.7141 23.7845 13.9487 24.019 14.2372 24.166L15.1452 22.384ZM16.6 22.4798C16.6 22.5568 16.6 22.6136 16.5992 22.6619C16.5985 22.7103 16.5971 22.7358 16.5961 22.7487C16.5939 22.7758 16.5961 22.6954 16.6509 22.588L18.4329 23.496C18.5458 23.2744 18.5771 23.0623 18.5894 22.9116C18.6008 22.7725 18.6 22.6127 18.6 22.4798H16.6ZM16.7467 24.3332C16.8795 24.3332 17.0393 24.3339 17.1784 24.3226C17.3292 24.3103 17.5413 24.2789 17.7628 24.166L16.8548 22.384C16.9622 22.3293 17.0426 22.327 17.0155 22.3292C17.0026 22.3303 16.9771 22.3316 16.9288 22.3324C16.8804 22.3331 16.8236 22.3332 16.7467 22.3332V24.3332ZM16.6509 22.588C16.6956 22.5002 16.767 22.4288 16.8548 22.384L17.7628 24.166C18.0513 24.019 18.2859 23.7845 18.4329 23.496L16.6509 22.588ZM16.7467 13.6665C16.8236 13.6665 16.8804 13.6665 16.9288 13.6673C16.9771 13.668 17.0026 13.6694 17.0155 13.6704C17.0426 13.6727 16.9622 13.6704 16.8548 13.6156L17.7628 11.8336C17.5413 11.7208 17.3292 11.6894 17.1784 11.6771C17.0393 11.6657 16.8795 11.6665 16.7467 11.6665V13.6665ZM18.6 13.5198C18.6 13.387 18.6008 13.2272 18.5894 13.0881C18.5771 12.9373 18.5458 12.7252 18.4329 12.5037L16.6509 13.4117C16.5961 13.3043 16.5939 13.2239 16.5961 13.251C16.5971 13.2639 16.5985 13.2894 16.5992 13.3378C16.6 13.3861 16.6 13.4429 16.6 13.5198H18.6ZM16.8548 13.6156C16.767 13.5709 16.6956 13.4995 16.6509 13.4117L18.4329 12.5037C18.2859 12.2152 18.0513 11.9806 17.7628 11.8336L16.8548 13.6156ZM15.2534 11.6665C15.1205 11.6665 14.9607 11.6657 14.8216 11.6771C14.6709 11.6894 14.4587 11.7208 14.2372 11.8336L15.1452 13.6156C15.0378 13.6704 14.9574 13.6727 14.9845 13.6704C14.9974 13.6694 15.0229 13.668 15.0713 13.6673C15.1196 13.6665 15.1764 13.6665 15.2534 13.6665V11.6665ZM15.4 13.5198C15.4 13.4429 15.4 13.3861 15.4008 13.3378C15.4016 13.2894 15.4029 13.2639 15.404 13.251C15.4062 13.2239 15.4039 13.3043 15.3492 13.4117L13.5671 12.5037C13.4543 12.7252 13.4229 12.9373 13.4106 13.0881C13.3992 13.2272 13.4 13.387 13.4 13.5198H15.4ZM14.2372 11.8336C13.9487 11.9806 13.7141 12.2152 13.5671 12.5037L15.3492 13.4117C15.3044 13.4995 15.233 13.5709 15.1452 13.6156L14.2372 11.8336ZM20.3334 17.2532V18.7465H22.3334V17.2532H20.3334ZM11.6667 18.7465V17.2532H9.66669V18.7465H11.6667ZM11.52 18.5998C11.4431 18.5998 11.3863 18.5998 11.3379 18.5991C11.2896 18.5983 11.2641 18.5969 11.2512 18.5959C11.2241 18.5937 11.3045 18.596 11.4119 18.6507L10.5039 20.4327C10.7254 20.5456 10.9375 20.5769 11.0883 20.5892C11.2274 20.6006 11.3872 20.5998 11.52 20.5998V18.5998ZM9.66669 18.7465C9.66669 18.8793 9.66591 19.0391 9.67727 19.1782C9.68959 19.329 9.72094 19.5411 9.83381 19.7626L11.6158 18.8546C11.6706 18.9621 11.6728 19.0425 11.6706 19.0154C11.6696 19.0024 11.6682 18.9769 11.6675 18.9286C11.6667 18.8803 11.6667 18.8235 11.6667 18.7465H9.66669ZM11.4119 18.6507C11.4997 18.6954 11.5711 18.7668 11.6158 18.8546L9.83381 19.7626C9.98082 20.0511 10.2154 20.2857 10.5039 20.4327L11.4119 18.6507ZM20.3334 18.7465C20.3334 18.8235 20.3333 18.8803 20.3326 18.9286C20.3318 18.9769 20.3305 19.0024 20.3294 19.0154C20.3272 19.0425 20.3295 18.9621 20.3842 18.8546L22.1662 19.7626C22.2791 19.5411 22.3104 19.329 22.3228 19.1782C22.3341 19.0391 22.3334 18.8793 22.3334 18.7465H20.3334ZM20.48 20.5998C20.6129 20.5998 20.7726 20.6006 20.9117 20.5892C21.0625 20.5769 21.2746 20.5456 21.4961 20.4327L20.5882 18.6507C20.6956 18.596 20.776 18.5937 20.7489 18.5959C20.7359 18.5969 20.7105 18.5983 20.6621 18.5991C20.6138 18.5998 20.557 18.5998 20.48 18.5998V20.5998ZM20.3842 18.8546C20.429 18.7668 20.5003 18.6954 20.5882 18.6507L21.4961 20.4327C21.7847 20.2857 22.0192 20.0511 22.1662 19.7626L20.3842 18.8546ZM20.48 17.3998C20.557 17.3998 20.6138 17.3999 20.6621 17.4006C20.7105 17.4014 20.7359 17.4027 20.7489 17.4038C20.776 17.406 20.6956 17.4037 20.5882 17.349L21.4961 15.567C21.2746 15.4541 21.0625 15.4227 20.9117 15.4104C20.7726 15.3991 20.6129 15.3998 20.48 15.3998V17.3998ZM22.3334 17.2532C22.3334 17.1203 22.3341 16.9605 22.3228 16.8214C22.3104 16.6707 22.2791 16.4586 22.1662 16.2371L20.3842 17.145C20.3295 17.0376 20.3272 16.9572 20.3294 16.9843C20.3305 16.9972 20.3318 17.0227 20.3326 17.0711C20.3333 17.1194 20.3334 17.1762 20.3334 17.2532H22.3334ZM20.5882 17.349C20.5003 17.3042 20.429 17.2328 20.3842 17.145L22.1662 16.2371C22.0192 15.9485 21.7847 15.714 21.4961 15.567L20.5882 17.349ZM11.52 15.3998C11.3872 15.3998 11.2274 15.3991 11.0883 15.4104C10.9375 15.4227 10.7254 15.4541 10.5039 15.567L11.4119 17.349C11.3045 17.4037 11.2241 17.406 11.2512 17.4038C11.2641 17.4027 11.2896 17.4014 11.3379 17.4006C11.3863 17.3999 11.4431 17.3998 11.52 17.3998V15.3998ZM11.6667 17.2532C11.6667 17.1762 11.6667 17.1194 11.6675 17.0711C11.6682 17.0227 11.6696 16.9972 11.6706 16.9843C11.6728 16.9572 11.6706 17.0376 11.6158 17.145L9.83381 16.2371C9.72094 16.4586 9.68959 16.6707 9.67727 16.8214C9.66591 16.9605 9.66669 17.1203 9.66669 17.2532H11.6667ZM10.5039 15.567C10.2154 15.714 9.98082 15.9485 9.83381 16.2371L11.6158 17.145C11.5711 17.2328 11.4997 17.3042 11.4119 17.349L10.5039 15.567ZM11.52 17.3998H13.5467V15.3998H11.52V17.3998ZM15.4 15.5465V13.5198H13.4V15.5465H15.4ZM18.4534 17.3998H20.48V15.3998H18.4534V17.3998ZM16.6 13.5198V15.5465H18.6V13.5198H16.6ZM15.4 22.4798V20.4532H13.4V22.4798H15.4ZM13.5467 18.5998H11.52V20.5998H13.5467V18.5998ZM20.48 18.5998H18.4534V20.5998H20.48V18.5998ZM16.6 20.4532V22.4798H18.6V20.4532H16.6ZM18.4534 18.5998C18.3205 18.5998 18.1607 18.5991 18.0216 18.6104C17.8709 18.6227 17.6587 18.6541 17.4372 18.767L18.3452 20.549C18.2378 20.6037 18.1574 20.606 18.1845 20.6038C18.1974 20.6027 18.2229 20.6014 18.2713 20.6006C18.3196 20.5999 18.3764 20.5998 18.4534 20.5998V18.5998ZM18.6 20.4532C18.6 20.3762 18.6 20.3194 18.6008 20.2711C18.6016 20.2227 18.6029 20.1972 18.604 20.1843C18.6062 20.1572 18.6039 20.2376 18.5492 20.345L16.7671 19.4371C16.6543 19.6586 16.6229 19.8707 16.6106 20.0214C16.5992 20.1605 16.6 20.3203 16.6 20.4532H18.6ZM17.4372 18.767C17.1487 18.914 16.9141 19.1485 16.7671 19.4371L18.5492 20.345C18.5044 20.4328 18.433 20.5042 18.3452 20.549L17.4372 18.767ZM15.4 20.4532C15.4 20.3203 15.4008 20.1605 15.3894 20.0214C15.3771 19.8707 15.3458 19.6586 15.2329 19.4371L13.4509 20.345C13.3961 20.2376 13.3939 20.1572 13.3961 20.1843C13.3971 20.1972 13.3985 20.2227 13.3992 20.2711C13.4 20.3194 13.4 20.3762 13.4 20.4532H15.4ZM13.5467 20.5998C13.6236 20.5998 13.6804 20.5999 13.7288 20.6006C13.7771 20.6014 13.8026 20.6027 13.8155 20.6038C13.8426 20.606 13.7622 20.6037 13.6548 20.549L14.5628 18.767C14.3413 18.6541 14.1292 18.6227 13.9784 18.6104C13.8393 18.5991 13.6795 18.5998 13.5467 18.5998V20.5998ZM15.2329 19.437C15.0859 19.1485 14.8513 18.914 14.5628 18.767L13.6548 20.549C13.567 20.5042 13.4956 20.4328 13.4509 20.345L15.2329 19.437ZM18.4534 15.3998C18.3764 15.3998 18.3196 15.3998 18.2713 15.3991C18.2229 15.3983 18.1974 15.3969 18.1845 15.3959C18.1574 15.3937 18.2378 15.396 18.3452 15.4507L17.4372 17.2327C17.6587 17.3456 17.8709 17.3769 18.0216 17.3892C18.1607 17.4006 18.3205 17.3998 18.4534 17.3998V15.3998ZM16.6 15.5465C16.6 15.6793 16.5992 15.8391 16.6106 15.9782C16.6229 16.129 16.6543 16.3411 16.7671 16.5626L18.5492 15.6546C18.6039 15.7621 18.6062 15.8425 18.604 15.8154C18.6029 15.8024 18.6016 15.7769 18.6008 15.7286C18.6 15.6803 18.6 15.6235 18.6 15.5465H16.6ZM18.3452 15.4507C18.433 15.4954 18.5044 15.5668 18.5492 15.6546L16.7671 16.5626C16.9141 16.8511 17.1487 17.0857 17.4372 17.2327L18.3452 15.4507ZM13.5467 17.3998C13.6795 17.3998 13.8393 17.4006 13.9784 17.3892C14.1292 17.3769 14.3413 17.3456 14.5628 17.2327L13.6548 15.4507C13.7622 15.396 13.8426 15.3937 13.8155 15.3959C13.8026 15.3969 13.7771 15.3983 13.7288 15.3991C13.6804 15.3998 13.6236 15.3998 13.5467 15.3998V17.3998ZM13.4 15.5465C13.4 15.6235 13.4 15.6803 13.3992 15.7286C13.3985 15.7769 13.3971 15.8024 13.3961 15.8154C13.3939 15.8425 13.3961 15.7621 13.4509 15.6546L15.2329 16.5626C15.3458 16.3411 15.3771 16.129 15.3894 15.9782C15.4008 15.8391 15.4 15.6793 15.4 15.5465H13.4ZM14.5628 17.2327C14.8513 17.0857 15.0859 16.8511 15.2329 16.5626L13.4509 15.6546C13.4956 15.5668 13.567 15.4954 13.6548 15.4507L14.5628 17.2327Z" fill="#373D46"/>
</svg>
