<svg width="32" height="32" viewBox="0 0 32 32" fill="none" xmlns="http://www.w3.org/2000/svg">
<path d="M9.8555 13.5124C9.04019 14.138 7.96354 14.5184 6.78325 14.5184C5.68828 14.5184 4.68252 14.191 3.89186 13.6442C1.87741 12.251 2.72026 9.44563 3.77237 7.28098L4.97908 4.79823C5.61135 3.49737 6.96664 2.6665 8.45633 2.6665H11.3916M9.8555 13.5124C10.6708 14.138 11.7475 14.5184 12.9277 14.5184C14.108 14.5184 15.1847 14.138 16 13.5124M9.8555 13.5124L11.3916 2.6665M22.1445 13.5124C22.9598 14.138 24.0365 14.5184 25.2167 14.5184C26.3117 14.5184 27.3175 14.191 28.1081 13.6442C30.1226 12.251 29.2797 9.44563 28.2276 7.28098L27.0209 4.79823C26.3886 3.49737 25.0334 2.6665 23.5437 2.6665H20.6084M22.1445 13.5124C21.3292 14.138 20.2525 14.5184 19.0722 14.5184C17.892 14.5184 16.8153 14.138 16 13.5124M22.1445 13.5124L20.6084 2.6665M16 13.5124V2.6665M11.3916 2.6665H16M16 2.6665H20.6084M5.24712 14.5184V25.6295C5.24712 27.675 6.96649 29.3332 9.08743 29.3332H22.9126C25.0335 29.3332 26.7529 27.675 26.7529 25.6295V14.5184M12.1597 29.3332V23.4072C12.1597 21.3617 13.8791 19.7035 16 19.7035C18.1209 19.7035 19.8403 21.3617 19.8403 23.4072V29.3332" stroke="#373D46" stroke-width="2" stroke-linecap="round"/>
</svg>
