<svg width="20" height="20" viewBox="0 0 20 20" fill="none" xmlns="http://www.w3.org/2000/svg">
<path d="M10 9.99996L17.3803 5.83329M10 9.99996L2.61972 5.83329M10 9.99996V18.3333M17.3803 5.83329C17.4573 5.96284 17.5 6.11324 17.5 6.26993V13.73C17.5 14.037 17.3359 14.32 17.0714 14.4691L10.4047 18.2269C10.2789 18.2978 10.1394 18.3333 10 18.3333M17.3803 5.83329C17.3064 5.70897 17.2009 5.60385 17.0714 5.53083L10.4047 1.77303C10.153 1.63116 9.84698 1.63116 9.5953 1.77303L2.92863 5.53083C2.79908 5.60385 2.69362 5.70897 2.61972 5.83329M2.61972 5.83329C2.54272 5.96284 2.5 6.11324 2.5 6.26993V13.73C2.5 14.037 2.66408 14.32 2.92863 14.4691L9.5953 18.2269C9.72114 18.2978 9.86057 18.3333 10 18.3333" stroke="#373D46" stroke-width="1.5" stroke-linecap="round"/>
</svg>
