<svg width="32" height="32" viewBox="0 0 32 32" fill="none" xmlns="http://www.w3.org/2000/svg">
<path d="M18.6668 2.6665H13.3334C12.9652 2.6665 12.6668 2.96498 12.6668 3.33317V6.34297C12.6668 6.93691 11.9487 7.23435 11.5287 6.81438L9.40059 4.68627C9.14024 4.42592 8.71813 4.42592 8.45778 4.68627L4.68654 8.4575C4.42619 8.71785 4.42619 9.13996 4.68654 9.40031L6.8147 11.5285C7.23468 11.9484 6.93723 12.6665 6.34329 12.6665H3.33354C2.96535 12.6665 2.66687 12.965 2.66687 13.3332V18.6665C2.66687 19.0347 2.96535 19.3332 3.33354 19.3332H6.34321C6.93715 19.3332 7.23459 20.0513 6.81461 20.4713L4.68639 22.5995C4.42604 22.8598 4.42604 23.282 4.68639 23.5423L8.45763 27.3135C8.71798 27.5739 9.14009 27.5739 9.40044 27.3135L11.5287 25.1853C11.9487 24.7653 12.6668 25.0628 12.6668 25.6567V28.6665C12.6668 29.0347 12.9652 29.3332 13.3334 29.3332H18.6668C19.035 29.3332 19.3334 29.0347 19.3334 28.6665V25.6567C19.3334 25.0627 20.0515 24.7653 20.4715 25.1853L22.5999 27.3137C22.8603 27.574 23.2824 27.574 23.5427 27.3137L27.314 23.5424C27.5743 23.2821 27.5743 22.86 27.314 22.5996L25.1856 20.4713C24.7656 20.0513 25.0631 19.3332 25.657 19.3332H28.6669C29.0351 19.3332 29.3335 19.0347 29.3335 18.6665V13.3332C29.3335 12.965 29.0351 12.6665 28.6669 12.6665H25.6569C25.063 12.6665 24.7655 11.9484 25.1855 11.5285L27.3138 9.40017C27.5742 9.13982 27.5742 8.71771 27.3138 8.45736L23.5426 4.68613C23.2822 4.42578 22.8601 4.42578 22.5998 4.68613L20.4715 6.81439C20.0515 7.23436 19.3334 6.93692 19.3334 6.34298V3.33317C19.3334 2.96498 19.035 2.6665 18.6668 2.6665Z" stroke="#373D46" stroke-width="2"/>
</svg>
